Coordinates
version=1
nRows=27
nColumns=12
inDegrees=yes

Units are S.I. units (second, meters, Newtons, ...)
Angles are in degrees

endheader
time	SC_y	SC_z	SC_x	AC_y	AC_z	AC_x	GH_y	GH_z	GH_yy	EL_x	PS_y
       0.0              -20.19          4.127          45.89          64.62          1.259         -1.674         -47.12          21.21         -95.08          80.01          107.2
   0.02939              -20.19           4.13          45.88          64.62          1.258         -1.677         -47.09          21.22         -95.05           80.0          107.2
   0.05878              -20.19          4.133          45.88          64.62          1.256         -1.679         -47.06          21.22         -95.02          79.99          107.2
   0.08817               -20.2          4.137          45.88          64.62          1.255         -1.682         -47.02          21.22         -94.98          79.98          107.2
    0.1176               -20.2           4.14          45.88          64.62          1.254         -1.685         -46.98          21.23         -94.94          79.97          107.2
    0.1469               -20.2          4.144          45.87          64.62          1.253         -1.688         -46.94          21.24          -94.9          79.96          107.2
    0.1763               -20.2          4.148          45.87          64.62          1.251         -1.692          -46.9          21.24         -94.86          79.95          107.2
    0.2057               -20.2          4.152          45.87          64.62           1.25         -1.695         -46.86          21.25         -94.82          79.94          107.1
    0.2351              -20.21          4.157          45.86          64.62          1.248         -1.699         -46.81          21.25         -94.77          79.92          107.1
    0.2645              -20.21          4.162          45.86          64.62          1.246         -1.703         -46.76          21.26         -94.72          79.91          107.1
    0.2939              -20.21          4.167          45.86          64.62          1.245         -1.708          -46.7          21.27         -94.66          79.89          107.1
    0.3233              -20.22          4.173          45.85          64.62          1.243         -1.712         -46.64          21.28          -94.6          79.88          107.1
    0.3527              -20.22          4.179          45.85          64.61           1.24         -1.718         -46.58          21.29         -94.54          79.86          107.0
    0.3821              -20.22          4.186          45.84          64.61          1.238         -1.723         -46.51           21.3         -94.47          79.84          107.0
    0.4114              -20.23          4.193          45.84          64.61          1.236         -1.729         -46.43          21.31          -94.4          79.82          107.0
    0.4408              -20.23          4.201          45.83          64.61          1.233         -1.736         -46.35          21.32         -94.31          79.79          106.9
    0.4702              -20.24           4.21          45.82          64.61           1.23         -1.743         -46.26          21.33         -94.23          79.77          106.9
    0.4996              -20.24          4.219          45.82          64.61          1.227          -1.75         -46.16          21.34         -94.13          79.74          106.9
     0.529              -20.25          4.229          45.81          64.61          1.223         -1.759         -46.06          21.36         -94.02          79.71          106.8
    0.5584              -20.25           4.24           45.8          64.61          1.219         -1.768         -45.94          21.37         -93.91          79.68          106.8
    0.5878              -20.26          4.252          45.79          64.61          1.215         -1.778         -45.81          21.39         -93.78          79.65          106.7
    0.6172              -20.27          4.266          45.78          64.61           1.21         -1.789         -45.67          21.41         -93.64          79.61          106.7
    0.6465              -20.28          4.281          45.77          64.61          1.205         -1.802         -45.52          21.43         -93.49          79.56          106.6
    0.6759              -20.29          4.297          45.76          64.61          1.199         -1.815         -45.35          21.46         -93.32          79.52          106.5
    0.7053               -20.3          4.315          45.74          64.61          1.193         -1.831         -45.16          21.48         -93.13          79.46          106.5
    0.7347              -20.31          4.336          45.73           64.6          1.186         -1.848         -44.94          21.51         -92.92           79.4          106.4
    0.7641              -20.32          4.358          45.71           64.6          1.178         -1.867         -44.71          21.54         -92.68          79.34          106.3
